<mxfile host="app.diagrams.net" modified="2024-05-22T14:20:33.946Z" agent="Mozilla/5.0 (Windows NT 10.0; Win64; x64) AppleWebKit/537.36 (KHTML, like Gecko) Chrome/124.0.0.0 Safari/537.36" version="23.0.2" etag="eOSsM5qf5qcu8UBzZ0gt" type="github">
  <diagram name="PÃ¡gina-1" id="OEMIWl4XqHpQZBMeLD7y">
    <mxGraphModel>
      <root>
        <mxCell id="0" />
        <mxCell id="1" parent="0" />
      </root>
    </mxGraphModel>
  </diagram>
</mxfile>
